<svg width="18.000000" height="18.000000" viewBox="0 0 18 18" fill="none" xmlns="http://www.w3.org/2000/svg" xmlns:xlink="http://www.w3.org/1999/xlink">
	<desc>
			Created with Pixso.
	</desc>
	<defs/>
	<circle id="Ellipse 1" cx="9.000000" cy="9.000000" r="9.000000" fill="#747474" fill-opacity="1.000000"/>
	<path id="SF Symbol" d="M5.7583 13C5.9763 13 6.16588 12.9147 6.30806 12.763L8.99052 10.0616L11.6919 12.763C11.8341 12.9052 12.0142 13 12.2322 13C12.6493 13 12.9905 12.6493 12.9905 12.2322C12.9905 12.0142 12.9147 11.8341 12.763 11.6919L10.0711 9L12.7725 6.2891C12.9337 6.12796 13 5.96682 13 5.75829C13 5.33175 12.6588 5 12.2417 5C12.0426 5 11.8815 5.06635 11.7204 5.22749L8.99052 7.93839L6.28909 5.23697C6.14693 5.08531 5.9763 5.01896 5.7583 5.01896C5.34123 5.01896 5 5.34123 5 5.76777C5 5.9763 5.08531 6.1564 5.22749 6.29858L7.91943 9L5.22749 11.7014C5.08531 11.8341 5 12.0237 5 12.2322C5 12.6493 5.34123 13 5.7583 13Z" fill="#FFFFFF" fill-opacity="1.000000" fill-rule="nonzero"/>
</svg>
